<?xml version="1.0" standalone="no"?>
<!DOCTYPE svg PUBLIC "-//W3C//DTD SVG 20010904//EN"
 "http://www.w3.org/TR/2001/REC-SVG-20010904/DTD/svg10.dtd">
<svg version="1.0" xmlns="http://www.w3.org/2000/svg"
 width="128.000000pt" height="128.000000pt" viewBox="0 0 128.000000 128.000000"
 preserveAspectRatio="xMidYMid meet">
<metadata>
Created by potrace 1.14, written by Peter Selinger 2001-2017
</metadata>
<g transform="translate(0.000000,128.000000) scale(0.100000,-0.100000)"
fill="#000000" stroke="none">
<path d="M226 1265 c-8 -21 20 -30 92 -30 l62 1 0 -89 c0 -48 -5 -97 -11 -108
-21 -41 13 -79 53 -58 16 9 18 16 12 37 -4 15 -7 70 -8 122 l-1 95 55 0 55 0
-1 -95 c-1 -52 -4 -107 -8 -122 -6 -21 -4 -28 12 -37 40 -21 74 17 53 58 -6
11 -11 60 -11 108 l0 89 59 1 60 1 -3 -96 c-2 -54 -6 -109 -10 -124 -6 -21 -4
-28 13 -37 40 -22 82 24 51 55 -7 7 -10 49 -8 105 l3 94 58 0 58 1 -4 -96 c-2
-52 -8 -107 -12 -122 -9 -34 23 -55 56 -37 17 9 20 16 13 37 -4 15 -7 70 -8
122 -1 91 0 95 22 98 l22 3 -2 -222 c-2 -141 -7 -224 -13 -226 -6 -2 -10 17
-9 47 0 27 -3 55 -7 62 -6 10 -74 13 -291 14 -156 1 -286 2 -290 3 -5 0 -8 59
-8 130 0 126 -7 158 -31 134 -12 -12 -14 -292 -2 -303 4 -5 19 -10 32 -12 20
-2 24 -9 26 -40 3 -44 -11 -50 -25 -12 -12 30 -34 27 -38 -4 -2 -14 8 -33 28
-53 17 -18 33 -44 35 -58 7 -55 27 -112 41 -118 28 -10 35 11 19 52 -11 25
-17 70 -17 134 l-1 96 241 3 242 2 1 -27 c3 -86 -2 -172 -12 -201 -13 -40 0
-63 25 -43 13 11 18 30 30 112 1 9 15 28 31 42 l30 25 5 229 c5 223 5 228 26
229 30 2 44 12 37 29 -8 23 -818 22 -827 0z"/>
<path d="M514 798 c-8 -13 33 -51 50 -45 22 7 16 34 -9 45 -32 15 -32 15 -41
0z"/>
<path d="M723 798 c-24 -12 -30 -32 -13 -43 14 -9 62 23 57 38 -5 16 -19 17
-44 5z"/>
<path d="M513 654 c-20 -8 -49 -65 -62 -119 -16 -64 -36 -95 -62 -95 -29 0
-20 -34 10 -38 25 -4 67 29 76 59 5 16 8 16 43 1 l37 -16 -3 -69 c-8 -145 23
-238 81 -245 59 -7 93 59 96 182 2 68 -1 85 -14 90 -20 7 -23 -2 -28 -94 -4
-73 -27 -140 -48 -140 -24 0 -48 84 -47 165 1 44 3 85 5 90 2 6 28 11 58 12
30 1 75 11 100 22 l46 20 9 -24 c18 -48 90 -72 98 -32 2 12 -3 17 -17 17 -26
0 -46 31 -62 95 -15 65 -45 114 -74 121 -32 8 -68 1 -73 -13 -4 -13 3 -17 49
-27 19 -4 31 -17 42 -43 8 -21 13 -42 10 -47 -12 -20 -92 -46 -141 -46 -50 0
-110 18 -138 41 -11 9 -11 18 2 47 16 40 31 53 54 50 22 -4 40 11 33 27 -5 14
-53 19 -80 9z"/>
<path d="M470 381 c-14 -10 -55 -28 -92 -40 -141 -47 -170 -87 -166 -236 2
-81 6 -100 18 -100 12 0 16 20 20 100 6 103 17 137 49 155 16 8 20 4 30 -36
21 -83 98 -224 122 -224 23 0 17 30 -16 86 -30 49 -75 166 -75 194 0 4 26 17
58 29 76 29 102 47 102 71 0 25 -17 25 -50 1z"/>
<path d="M760 381 c0 -11 10 -27 21 -35 18 -12 21 -21 16 -51 -10 -60 -51
-137 -105 -195 l-50 -55 -42 40 c-23 22 -55 64 -72 92 -35 61 -42 68 -57 50
-17 -21 25 -93 94 -164 34 -35 67 -63 75 -63 8 0 41 28 75 63 62 64 108 144
120 210 4 20 11 37 15 37 17 0 70 -23 70 -30 0 -28 -45 -144 -75 -194 -34 -56
-39 -86 -15 -86 19 0 88 122 111 196 20 66 24 72 42 63 31 -17 47 -72 47 -163
0 -83 10 -110 32 -88 6 6 10 51 9 104 -2 144 -32 184 -169 229 -37 12 -78 30
-91 40 -31 24 -51 24 -51 0z"/>
</g>
</svg>
