<svg width="290" height="159" fill="none" xmlns="http://www.w3.org/2000/svg"><path d="M145 158.605c61.856 0 112-18.957 112-42.341V88.342H33v27.922c0 23.384 50.144 42.341 112 42.341z" fill="url(#paint0_radial-750664)"/><g filter="url(#filter0_ddi-060959)"><ellipse cx="145" cy="88.341" rx="112" ry="42.342" fill="url(#paint1_linear-508344)"/></g><path d="M238.244 88.34c0 4.516-2.426 8.937-7.072 13.076-4.645 4.138-11.423 7.91-19.884 11.099-16.916 6.374-40.352 10.337-66.288 10.337s-49.372-3.963-66.288-10.337c-8.462-3.189-15.24-6.961-19.885-11.099-4.646-4.139-7.071-8.56-7.071-13.076 0-4.517 2.425-8.938 7.071-13.077 4.645-4.138 11.423-7.91 19.885-11.099C95.628 57.79 119.064 53.828 145 53.828s49.372 3.963 66.288 10.338c8.461 3.188 15.239 6.96 19.884 11.098 4.646 4.14 7.072 8.56 7.072 13.077z" stroke="url(#paint2_linear-662290)" stroke-width="2" opacity=".5"/><g style="mix-blend-mode:soft-light" fill-rule="evenodd" clip-rule="evenodd" fill="#fff"><path d="M159.573 69.236c-.367-.218-.616-.247-.658-.251-.042-.004-.296-.027-.903.093-.623.124-1.432.363-2.404.76-1.939.794-4.158 2.066-6.495 3.76-4.654 3.375-9.524 8.242-13.462 13.796-3.937 5.555-6.155 10.691-6.588 14.493-.217 1.909.023 3.43.652 4.484.316.528.701.888 1.077 1.112.367.219.616.248.658.252.042.004.296.027.902-.093.623-.124 1.433-.363 2.405-.761 1.939-.793 4.158-2.065 6.494-3.759 4.654-3.375 9.525-8.242 13.462-13.797 3.937-5.554 6.156-10.69 6.589-14.492.217-1.91-.023-3.43-.653-4.484-.315-.528-.7-.888-1.076-1.113zm-2.462 20.332c7.939-11.2 9.035-20.822 2.446-21.49-6.588-.667-18.365 7.872-26.304 19.074-7.939 11.2-9.034 20.822-2.446 21.49 6.588.667 18.365-7.872 26.304-19.074z"/><path d="M196.213 83.512c.318-.23.259-.325.248-.34-.011-.016-.087-.11-.666-.249-.594-.142-1.548-.287-2.946-.407-2.789-.238-6.815-.328-11.867-.246-10.063.163-23.655 1.002-38.357 2.49-14.701 1.487-27.582 3.327-36.514 5.086-4.484.883-7.85 1.721-9.95 2.454-1.052.367-1.685.673-2.011.908-.318.23-.259.325-.248.34.011.016.087.11.666.248.594.143 1.549.288 2.946.407 2.79.238 6.815.329 11.867.247 10.063-.164 23.655-1.002 38.357-2.49 14.701-1.487 27.582-3.328 36.514-5.086 4.484-.883 7.849-1.721 9.95-2.454 1.052-.367 1.685-.673 2.011-.908zm-47.833 9.355c29.645-3 52.245-7.45 50.479-9.939-1.767-2.489-27.231-2.075-56.876.925-29.645 3-52.245 7.449-50.479 9.938 1.767 2.49 27.231 2.076 56.876-.924z"/><path d="M181.804 102.644c.683-.011.872-.078.902-.089.03-.012.208-.084.236-.343.029-.265-.115-.65-.541-1.168-.849-1.032-2.654-2.395-5.368-4.008-5.406-3.213-14.123-7.244-24.881-11.313-10.759-4.07-21.415-7.367-29.909-9.412-4.265-1.026-7.868-1.709-10.597-2.03-1.367-.161-2.385-.216-3.087-.205-.683.01-.872.078-.902.09-.03.01-.208.082-.236.341-.029.266.115.651.541 1.168.849 1.033 2.654 2.396 5.368 4.009 5.406 3.213 14.123 7.244 24.881 11.313 10.759 4.07 21.415 7.367 29.909 9.411 4.265 1.027 7.868 1.71 10.597 2.031 1.367.161 2.385.216 3.087.205zm-45.349-10.983c21.694 8.206 43.188 13.38 48.007 11.557 4.82-1.823-8.86-9.953-30.554-18.159s-43.188-13.38-48.007-11.557c-4.82 1.823 8.86 9.953 30.554 18.159z"/><path d="M114.918 79.207c2.084.21 3.32 1.02 2.762 1.809-.559.788-2.701 1.255-4.784 1.044-2.084-.21-3.32-1.02-2.762-1.809.559-.788 2.701-1.255 4.784-1.044zm63.421 1.187c2.085.211 3.322 1.021 2.763 1.81-.558.787-2.701 1.255-4.785 1.044-2.085-.211-3.322-1.021-2.763-1.81.558-.788 2.701-1.255 4.785-1.044zM129.195 99.42c2.085.211 3.322 1.021 2.764 1.809-.558.787-2.701 1.255-4.785 1.043-2.085-.211-3.322-1.02-2.764-1.808.558-.788 2.701-1.255 4.785-1.044zm17.496-13.508c3.53.358 5.624 1.73 4.678 3.063-.945 1.335-4.573 2.126-8.102 1.769-3.529-.358-5.624-1.729-4.678-3.063.946-1.334 4.573-2.126 8.102-1.769z"/></g><defs><linearGradient id="paint1_linear-508344" x1="145" y1="46" x2="145" y2="130.683" gradientUnits="userSpaceOnUse"><stop stop-color="#FD91FF"/><stop offset=".344" stop-color="#A0A8FF"/><stop offset=".947" stop-color="#C9F2FF"/></linearGradient><linearGradient id="paint2_linear-662290" x1="50.756" y1="52.827" x2="245.225" y2="98.24" gradientUnits="userSpaceOnUse"><stop stop-color="#fff"/><stop offset="1" stop-color="#fff" stop-opacity="0"/></linearGradient><radialGradient id="paint0_radial-750664" cx="0" cy="0" r="1" gradientUnits="userSpaceOnUse" gradientTransform="matrix(25.92754 72.17656 -120.52735 43.2963 149.853 121.466)"><stop stop-color="#68E9F1"/><stop offset=".604" stop-color="#86AFFF"/><stop offset="1" stop-color="#9492FF"/></radialGradient><filter id="filter0_ddi-060959" x="0" y="0" width="290" height="150.683" filterUnits="userSpaceOnUse" color-interpolation-filters="sRGB"><feFlood flood-opacity="0" result="BackgroundImageFix"/><feColorMatrix in="SourceAlpha" values="0 0 0 0 0 0 0 0 0 0 0 0 0 0 0 0 0 0 127 0"/><feOffset dy="-13"/><feGaussianBlur stdDeviation="16.5"/><feColorMatrix values="0 0 0 0 0.404167 0 0 0 0 0.741154 0 0 0 0 1 0 0 0 0.4 0"/><feBlend in2="BackgroundImageFix" result="effect1_dropShadow"/><feColorMatrix in="SourceAlpha" values="0 0 0 0 0 0 0 0 0 0 0 0 0 0 0 0 0 0 127 0"/><feOffset dy="1.858"/><feGaussianBlur stdDeviation="1.858"/><feColorMatrix values="0 0 0 0 1 0 0 0 0 1 0 0 0 0 1 0 0 0 0.25 0"/><feBlend in2="effect1_dropShadow" result="effect2_dropShadow"/><feBlend in="SourceGraphic" in2="effect2_dropShadow" result="shape"/><feColorMatrix in="SourceAlpha" values="0 0 0 0 0 0 0 0 0 0 0 0 0 0 0 0 0 0 127 0" result="hardAlpha"/><feOffset dy="-1.858"/><feGaussianBlur stdDeviation=".674"/><feComposite in2="hardAlpha" operator="arithmetic" k2="-1" k3="1"/><feColorMatrix values="0 0 0 0 0.925 0 0 0 0 0.936947 0 0 0 0 1 0 0 0 0.12 0"/><feBlend in2="shape" result="effect3_innerShadow"/></filter></defs></svg>